<?xml version="1.0" standalone="no"?>
<!DOCTYPE svg PUBLIC "-//W3C//DTD SVG 1.1//EN" "http://www.w3.org/Graphics/SVG/1.1/DTD/svg11.dtd">
<svg xmlns="http://www.w3.org/2000/svg">
<metadata>Copyright (C) 2021 by original authors @ fontello.com</metadata>
<defs>
<font id="fontello" horiz-adv-x="1000" >
<font-face font-family="fontello" font-weight="400" font-stretch="normal" units-per-em="1000" ascent="850" descent="-150" />
<missing-glyph horiz-adv-x="1000" />
<glyph glyph-name="download" unicode="&#xe800;" d="M493 650h-11v-467h11v467z m-130-354l125-127 124 127-8 7-116-119-117 120-8-8z m0 0l-35 35-35-35 35-35 35 35z m125-127l-36-35 36-37 36 37-36 35z m124 127l36-35 34 35-35 35-35-35z m-8 7l36 35-36 37-35-37 35-35z m-116-119l-36-35 36-37 35 37-35 35z m-117 120l35 35-35 36-36-36 36-35z m-43-43l124-127 72 70-125 127-71-70z m196-127l124 127-72 70-124-127 72-70z m123 197l-7 7-71-70 7-7 71 70z m-78 7l-117-119 71-70 117 119-71 70z m-46-119l-117 120-71-70 117-120 71 70z m-188 120l-7-8 71-70 7 8-71 70z m290-253h-275v-11h275v11z" horiz-adv-x="1000" />

<glyph glyph-name="close" unicode="&#xe801;" d="M41-98c302 303 605 605 907 907 22 22-13 56-35 34-302-302-604-604-906-906-22-22 12-57 34-35z m907 35c-302 302-605 604-907 906-22 22-56-12-34-34 302-302 604-604 906-907 22-22 57 12 35 35z" horiz-adv-x="1000" />

<glyph glyph-name="hamburger-menu" unicode="&#xe802;" d="" horiz-adv-x="500" />

<glyph glyph-name="zoom" unicode="&#xe803;" d="M796 71l-195 195c0 1 0 2 0 3 1 1 1 1 2 2 33 38 51 85 51 136 1 61-24 121-70 162-40 37-93 57-148 56-52-1-103-21-142-57-43-40-68-94-69-153-1-59 21-115 63-156 40-41 94-63 152-63 40 0 79 11 112 32 1 0 1 0 2 0 6 5 6 12 2 17-3 5-10 8-17 4-29-19-64-28-99-28-51 0-99 19-135 55-36 37-57 88-55 140 2 53 25 102 64 137 32 28 73 44 115 47 55 3 106-17 145-55 36-36 55-84 55-135 0-49-18-95-52-131l0 0c-1 0-1 0-1-1l0 0c-3-3-5-7-5-11 0-4 2-7 4-10l0 0 204-203c2-3 5-4 9-4 3 0 6 1 8 4 5 5 5 12 0 17z m-251 347c-72 0-143 0-215 0-7 0-7-11 0-11 72 0 143 0 215 0 7 0 7 11 0 11z m-107 102c0-72 0-143 0-215 0-7 10-7 10 0 0 72 0 143 0 215 0 7-10 7-10 0z" horiz-adv-x="1000" />

<glyph glyph-name="flammability" unicode="&#xe804;" d="M463-150c29 25 34 60 43 94 2 9 4 19 7 28 8 26 13 34 40 62-13 6-25 5-37 0-8-4-15-8-22-14l0 0c-17-14-34-29-46-49-8-14-21-25-35-32l-1 0c-1-1-3-1-5-2-1 0-1 0-1 0 6 22 12 45 18 68 3 14 6 29 9 43 5 20 13 39 27 55-14 5-27 3-39-2-21-9-36-24-49-42-1-2-2-4-2-6-13-39-43-57-79-69 12 24 11 49 14 74 3 18 8 35 23 49-12 1-22-2-32-5-21-8-39-22-51-41l-1 0c-15-24-30-50-44-75-13-22-25-45-43-65-4-5-10-9-16-15-6 9-13 18-19 26-31 47-48 99-54 155-8 82 11 158 55 227 30 46 69 82 115 112 45 29 91 56 137 84 44 27 87 55 123 93 23 23 43 51 59 81l1 2c0-3 1-4 1-5 0-31 0-61 1-92 1-37-3-74-18-110-3-9-4-18 1-29 17 10 34 19 49 30 46 32 83 71 115 116 22 32 43 65 62 99 19 34 25 72 26 110 0 14 0 27 0 42 4-4 7-6 10-9 31-31 49-69 61-111 8-30 14-62 14-94 0-17-4-34-6-51-10-54-24-108-44-160 0-1 0-2-1-4 13 0 24 4 35 10 19 10 34 25 49 40 8 8 16 15 25 22 5-153-38-292-127-416-87-120-208-186-348-224v0z" horiz-adv-x="1000" />

<glyph glyph-name="wet-dry-crocking" unicode="&#xe805;" d="M295-49c-43 0-78 4-113 12-32 7-59 24-83 45-33 27-59 59-75 98-9 22-12 46-14 69-12 124 25 235 91 339 31 50 67 96 111 136 60 54 125 99 203 123 33 11 67 15 101 7 33-8 57-27 73-56 11-20 12-40 0-60-1-2-2-3-2-4-5-9-9-19-3-28 8-12 20-18 34-17 16 1 30 8 42 17 24 17 46 35 69 51 33 22 67 42 106 52 37 10 74 9 107-12 23-15 35-36 42-60 11-32 9-65 2-98-11-54-35-104-60-153-42-82-100-152-163-218-50-53-105-101-166-142-66-44-137-76-216-92-26-5-55-8-85-9l-1 0 0 0z m152 581c-8-2-16-2-22-6-35-17-56-44-61-82 0-2 0-3 0-5 0-12 6-23 15-29l0 0c12-7 23-3 33 3 2 0 3 1 4 1l0 0c31 23 52 53 55 92 1 17-7 25-24 26l0 0z" horiz-adv-x="1000" />

<glyph glyph-name="colorfastness-to-light" unicode="&#xe806;" d="M622 171c2-16 4-31 5-46 6-42 2-84-8-125-4-18-5-38-6-56-1-16 0-32 0-48l-4-2c-1 2-2 4-3 6l0 0c-14 18-21 40-24 62-5 30-8 60-12 89-4 27-14 51-34 70-2 2-4 3-6 5l0 0c-13 8-10 10-22-3-10-12-14-27-14-42-1-23-12-42-25-59-16-22-34-42-51-63-18-22-35-44-44-72-1 0-1-1-2-2-2 22-1 42 6 61 9 27 20 54 30 80 8 22 15 45 14 69-1 18-6 36-16 53-6-6-11-12-17-18-25-24-55-41-85-57-35-18-69-36-104-54-9-6-18-13-29-19 4 11 8 21 13 31 13 22 32 38 52 55 17 15 36 29 52 46 19 19 28 42 30 69 0 6-2 8-7 9-10 3-19 1-29-3-7-3-13-6-18-10l0 1c-19-12-41-11-62-9-48 5-96 7-143-2-9-1-17-4-27-6 13 17 28 28 45 36 24 11 50 16 75 22 23 5 45 11 67 19 22 8 38 24 48 46 1 2 2 4 3 5-18 3-35 5-52 9-30 8-56 23-83 39-29 17-58 34-87 49-12 6-25 9-37 14 19 6 39 9 58 5 30-6 60-14 89-21 26-7 51-11 78-4 14 4 27 11 39 19l-1 0c-5 4-10 7-15 10-26 18-45 42-62 69-19 28-36 58-56 86-12 16-26 29-40 44-1 0-2 2-3 3 22-1 42-8 58-21 23-18 44-36 66-55 22-18 45-33 73-40 6-1 12-2 18-3l1 0c2 0 5 3 5 4 0 8 0 16-1 24-2 6-6 12-9 18-14 21-19 45-19 70 0 43-2 85-10 128-2 12-5 24-7 37 4-4 8-8 12-12 13-15 21-34 28-53 11-28 21-57 33-86 8-19 20-35 37-47 11-8 23-12 37-13l1 0c-2 8-4 16-5 25-4 30 3 58 17 85 12 24 26 47 38 71 11 19 18 40 18 62-1 5-1 10-2 15 7-3 8-8 9-13 1-14 1-28 1-42 0-33-1-65-1-98 0-28 5-56 17-83 1-3 3-7 6-12 6 6 12 11 17 16 9 12 17 25 26 38 19 27 41 51 70 68 31 20 57 45 77 74l0 1c1 1 2 2 3 4 2-13 1-24-1-35-6-24-19-44-32-64-14-21-28-42-41-63-12-22-16-46-12-71 0-1 0-2 1-3l0 0c15 8 30 17 46 24 31 14 64 20 97 26 39 8 77 15 113 32 1 0 1 0 2 0 0 0 0 0 0 0l0 0c-5-13-13-24-24-33-17-15-38-25-59-36-24-12-49-24-71-42-15-12-28-28-36-46l0-1c-3-6-1-9 4-12 17-8 34-6 51-4 17 2 34 6 50 2 6-1 11-2 15-4l0 0c51-25 106-36 162-39 2 0 3 0 4-1l0 0c-4-2-8-4-12-6-25-11-51-13-78-15-28-1-57-1-85-4-31-3-58-15-79-39 0-1-1-2-1-3-1 0-1-1-1-2l0 0c3 0 6-1 8-2 36-8 66-27 91-54 15-16 30-33 44-49 23-26 48-48 80-61 0 0 0-1 0-2-12 2-23 2-34 5-28 6-52 19-76 33-23 12-46 25-72 32-9 3-20 5-31 5-13 0-25-2-36-6l1 0c-2 0-4-1-7-2 40-30 54-74 66-119 5-20 10-39 16-59 9-28 22-54 43-75-16 6-31 16-42 29l0 0c-16 17-30 36-44 53-16 20-32 40-49 58-16 17-36 27-61 31l0 0z" horiz-adv-x="1000" />

<glyph glyph-name="facts" unicode="&#xe807;" d="M500 850c279 0 502-220 500-498-2-263-216-485-500-487-279-1-500 222-500 500 0 265 227 485 500 485v0z m-441-492c-3-230 191-434 439-435 240 0 440 194 444 424 5 234-183 446-441 446-260 0-446-212-442-435v0z m441-318c-180 0-324 143-323 321 0 174 147 316 325 316 180-1 321-144 321-325-1-171-147-313-323-312v0z m265 317c0 1 0 1 0 2 0 144-118 261-264 262l0 0c-146 1-267-118-267-262 0-1 0-3 0-4 0-145 119-262 266-262 147 0 266 117 266 262 0 1 0 2 0 3l0-1-1 0z m-115-4c-5-86-73-147-161-143-81 5-143 74-139 156 4 80 75 144 156 140 83-3 148-73 144-153h0z m-243 5c0 0 0-1 0-1 0-50 42-91 93-91h0c0 0 1 0 1 0 52 0 94 41 94 92 0 51-42 92-94 92 0 0-1 0-2 0l0 0c-51-1-92-41-92-91 0-1 0-1 0-1l0 0h0z" horiz-adv-x="1000" />

<glyph glyph-name="physical-properties" unicode="&#xe808;" d="M619 436h10c93 0 187-1 280 0 8 0 15 2 22 5 5 2 9 6 7 13-2 8-9 14-16 13-4 0-7-2-10-4l0 0c-6-4-12-4-19-4-17 0-34 0-52 0 0 1 1 2 1 2 19 13 38 26 56 40 24 16 56 9 73-6 23-21 23-59 0-83-12-13-29-22-49-22 0 0 0 0-1 0l0 0c-94 0-188 0-282 0-5 0-8 2-9 7-3 13-7 25-11 39l0 0z m-484-42c-26 1-52 1-78 3-24 3-44 24-48 49-4 22 9 46 32 58 25 13 50 10 73-7 34-25 69-50 103-75 41-30 82-59 123-89 4-3 5-6 3-11-5-12-9-24-13-38l-31 23c-69 49-137 99-206 149-5 3-12 5-18 7-6 2-12 1-15-6-3-8 0-17 6-20 3-2 7-3 11-3l0 0c6 0 11-3 15-6 15-11 29-21 44-32l-1-2z m340-255c-30-21-59-42-88-64-49-35-99-71-147-107-6-4-10-11-14-17-4-4-5-10 1-14 6-5 15-7 20-2 3 3 5 7 8 11 3 3 5 8 9 10 14 12 29 23 44 34 1-1 1-1 1-2-8-23-15-46-24-69-12-31-52-45-81-28-29 17-38 60-17 90 5 7 11 13 17 17l1 1c75 55 151 110 227 165 3 3 6 4 9 1 11-9 22-17 34-26l0 0z m-55 321c9 28 18 54 26 80 21 66 43 132 64 198 2 6 2 14 2 21 0 6-3 11-10 12-8 1-16-4-18-11-1-4 0-8 0-13 0-5 1-10-1-15-5-17-10-35-16-53-1 2-2 4-3 6-6 20-13 41-19 61-9 31 10 62 34 72 26 10 57-2 72-29 10-17 12-36 6-55-30-90-59-179-88-269-1-2-3-5-4-5-14 0-29 0-45 0v0z m236-225c3-9 6-18 8-27 28-83 55-167 82-251 2-6 7-11 11-16 5-6 10-7 15-4 7 5 10 13 7 20-1 3-5 6-7 9-3 4-6 8-8 13-6 15-10 31-15 46-1 2-2 4-2 6l2 1c21-17 43-33 63-51 16-14 18-45 8-65-11-20-35-32-58-28-28 4-47 20-56 46-29 90-58 180-87 270-1 2-1 6 1 6 11 9 23 17 36 25v0z m-96-32l-37 27c2 1 4 3 6 4 58 42 115 84 173 126 3 2 7 3 11 3l0 0c22 1 43 1 66-1l-219-159z m75-142l-26 19c-63 45-125 91-187 136-4 3-5 6-3 11 4 12 7 24 11 36l46-33c44-32 89-65 133-97 3-3 6-6 7-10l0 0c6-17 12-35 18-52 0-3 1-6 2-9l-1-1z m-332 44c7 22 14 44 21 66 20 62 40 123 60 185 2 4 3 6 8 6 13-1 26 0 40 0-7-20-13-38-19-57-17-51-33-102-50-153-2-4-4-8-7-10l0 0c-17-13-35-25-52-38l-1 1z m283 201c-11 34-22 67-33 100-11 37-23 73-35 110 0 2-1 4-1 6 0 3 1 5 1 7l0 0c6 20 13 40 20 63 2-5 3-7 4-9 26-81 52-163 79-244 1-5 1-7-3-10-11-7-21-15-32-23h0z m-72 131c5-14 9-28 14-43h-8c-71 0-143 0-214 0-4 1-8 2-11 4l0 0c-17 12-34 25-53 39h272z" horiz-adv-x="1000" />

<glyph glyph-name="abrasion-high-traffic" unicode="&#xe809;" d="M994 842v-997h-983v997h983z m-491-136c-115-249-230-496-344-745h9c36 0 72 0 108-1 6 0 9 2 12 8 26 58 51 115 77 172 2 5 5 7 10 7 85 0 170 0 255 0 6 0 8-2 10-7 25-57 51-114 76-172 2-6 5-8 11-8 39 1 78 1 117 1 2 0 5 0 9 0-117 249-233 496-350 745v0z m100-470h-200c33 76 66 152 100 229l100-229z" horiz-adv-x="1000" />

<glyph glyph-name="abrasion-low-traffic" unicode="&#xe80a;" d="M992-140h-980v980h980v-980z m-349 684c-113 84-257 58-337-29-79-85-86-215-16-309 35-46 80-77 136-91 79-20 151-5 218 43v-39h103v467h-104v-42z m-1-197c1-78-66-145-145-147-82-2-151 61-154 142 0 1 0 3 0 5 0 81 66 147 148 148h0c83 0 150-65 151-148l0 0z" horiz-adv-x="1000" />

<glyph glyph-name="filled-heart" unicode="&#xe80c;" d="M524 771c-123 109-316 105-435-8-118-113-119-295-1-408l496-479 497 479c118 113 117 295-1 408-119 113-312 117-435 8l-61-54-60 54z" horiz-adv-x="1214" />

<glyph glyph-name="search" unicode="&#xe80d;" d="M440 850c-243 0-440-197-440-440 0-243 197-441 440-441 101 0 194 34 268 92l211-211 81 81-210 211c57 74 91 167 91 268 0 243-198 440-441 440z m0-115c180 0 326-146 326-325 0-180-146-326-326-326-179 0-325 146-325 326 0 179 146 325 325 325z" horiz-adv-x="1000" />

<glyph glyph-name="unfilled-heart" unicode="&#xe80e;" d="M929 517q0 46-12 80t-31 55-46 33-52 18-55 4-62-14-62-36-48-40-34-34q-10-13-27-13t-27 13q-14 15-34 34t-48 40-62 36-62 14-55-4-52-18-46-33-31-55-12-80q0-93 105-198l324-312 324 312q105 105 105 198z m71 0q0-123-128-251l-347-335q-10-10-25-10t-25 10l-348 336q-5 5-15 15t-31 37-38 54-30 67-13 77q0 123 71 192t196 70q34 0 70-12t67-33 54-38 42-38q20 20 42 38t54 38 67 33 70 12q125 0 196-70t71-192z" horiz-adv-x="1000" />

<glyph glyph-name="save-as-pdf" unicode="&#xe80f;" d="M325 336h-59v-168h44v56h15c10 0 19 1 26 4 8 3 15 6 21 11 6 4 10 10 13 17 3 8 4 17 4 27 0 9-1 16-3 22-3 6-7 12-11 16-5 5-12 8-21 11-9 2-19 4-29 4z m12-70c-2-2-5-4-8-5-2-1-6-2-10-2h-9v39h12c5 0 10-2 13-5 3-3 4-7 4-13 2-2 2-4 0-7 0-3-1-5-2-7z m135 70h-59v-168h54c14 0 27 2 38 6 10 5 19 10 26 18 8 7 14 16 18 26 4 11 6 24 6 38 0 14-2 26-5 35-3 10-9 18-16 24-7 6-16 11-27 15-10 4-21 6-35 6z m30-118c-3-5-8-8-13-10-5-1-11-2-17-2h-9v95h9c6 0 12-1 16-3 4-2 8-5 11-9 3-5 5-10 6-15 2-5 2-12 2-20 2-8 2-15 1-22-1-6-3-11-6-14z m86-50h44v62h52v38h-52v33h56v35h-100v-168z m327 324h-59v89c0 1 0 3-1 5 0 3-1 5-2 7-2 1-3 2-4 4 0 1 0 3-2 4l-236 236c-2 2-3 4-5 5-1 1-2 2-4 2-2 1-4 2-6 2-3 0-4 1-6 1h-472c-9 0-16-3-21-9-6-5-8-12-8-21v-325h-59c-9 0-16-2-22-8-5-5-8-12-8-21v-413c0-9 3-16 8-22 6-5 13-8 22-8h59v-88c0-9 2-16 8-22 5-5 12-8 21-8h708c9 0 16 3 22 8 5 6 8 13 8 22v88h59c9 0 16 3 21 8 6 6 8 13 8 22v413c0 9-2 16-8 21-5 6-12 8-21 8z m-295 254l135-136h-135v136z m-472 42h413v-207c0-9 3-16 8-21 6-6 13-9 21-9h207v-59h-649v296z m649-827h-649v59h649v-59z m88 118h-826v354h826v-354z" horiz-adv-x="944" />

<glyph glyph-name="price-lists" unicode="&#xe810;" d="" horiz-adv-x="1000" />

<glyph glyph-name="maintenance" unicode="&#xe811;" d="M947 791h-888v-855h888v855z m-882-470c59 44 202 106 424 0 222-107 408-45 458 0m-323 455l0-514m-265 514l0-397" horiz-adv-x="1000" />

<glyph glyph-name="indoor-advantage" unicode="&#xe812;" d="M1012 518v298h-330m-454-437v-318h330m-330 0l784 755m-124-357v-557h-825v795h536" horiz-adv-x="1063" />

<glyph glyph-name="performance-frame" unicode="&#xe813;" d="M937-7c0-9 0-17 0-27-45 0-88 0-132 0 0 9 0 17 0 27 43 0 87 0 132 0z m0 711c0-10 0-17 0-26-44 0-87 0-132 0 0 8 0 16 0 26 44 0 87 0 132 0z m0-168c-45 0-88 0-133 0 0 8 0 16 0 25 44 0 88 0 133 0 0-7 0-15 0-25z m-133-142c0 10 0 17 0 26 44 0 88 0 132 0 0-8 0-16 0-26-43 0-87 0-132 0z m-10-492c-10 1-18 2-27 2 0 42 0 82 0 124 9 0 18 0 27 0 0-41 0-82 0-126z m142 208c-46 0-88 0-131 0 0 9 0 17 0 25 44 0 87 0 131 0 0-8 0-16 0-25z m-284-206c-9 0-18 0-27 0 0 42 0 83 0 125 9 0 17 0 27 0 0-42 0-83 0-125z m-383 935c9 0 17 0 27 0 0-39 1-77-1-115 0-5-15-8-26-14 0 46 0 87 0 129z m285 0c9 0 16 0 25 0 0-41 0-81 0-124-7 0-15 0-25-1 0 42 0 83 0 125z m-142 0c10 0 17 0 26 0 0-41 0-82 0-123-8 0-16 0-26 0 0 41 0 81 0 123z m97-935c-9 0-17 0-26 0 0 42 0 83 0 125 9 0 17 0 26 0 0-42 0-82 0-125z m296 373c44 0 88 0 132 0 0-9 0-16 0-26-44 0-87 0-132 0 0 9 0 16 0 26z m-678 562c9 0 17 0 26 0 0-41 0-81 0-123-8-1-16-1-26-2 0 42 0 82 0 125z m739-124c-9 0-17 0-26 0 0 41 0 81 0 123 8 0 16 0 26 0 0-41 0-81 0-123z m-813-687c12 0 20 0 29 0 0-41 0-82 0-122-26-4-29-3-29 20 0 33 0 67 0 102z m69 435c-45 0-82 0-120 0 0 9 0 17 0 29 35 0 70 1 106-1 4 0 8-16 14-28z m-6-112c0-11 0-19 0-29-38 0-75 0-112 0-7 27-6 28 20 28 30 1 61 1 92 1z m-114 282c39 0 76 0 114 0 0-8 0-17 0-26-38 0-75 0-114 0 0 8 0 16 0 26z m115-427c0-10 0-17 0-26-38 0-76 0-115 0 0 9 0 17 0 26 38 0 75 0 115 0z m249-303c-8 0-16 0-25-1 0 43 0 84 0 126 8 0 16 0 25 0 0-40 0-81 0-125z m-143 1c-8 0-16 0-25 0 0 41 0 82 0 124 8 1 16 2 25 2 0-42 0-83 0-126z m474 934c9 0 17 0 25 0 0-41 0-81 0-122-8 0-16 0-25 0 0 40 0 80 0 122z m-695-799c-1 8-1 15-2 24 38 0 76 0 116 0 0-8 1-15 1-24-38 0-76 0-115 0z m115 735c0-8 0-15 0-24-38 0-76 0-115 0 0 7 0 14 0 24 37 0 75 0 115 0z m142-284c0-9 0-17 0-26-33 0-64 0-97 0 0 8 0 16 0 26 32 0 63 0 97 0z m473-27c0 10 0 18 0 28 32 0 63 0 96 0 0-9 0-17 0-28-31 0-62 0-96 0z m-259-470c0-9 0-18 0-27-33 0-65 0-97 0 0 9 0 18 0 27 32 0 63 0 97 0z m-215 356c0-9 0-18 0-27-32 0-63 0-96 0 0 9 0 17 0 27 32 0 63 0 96 0z m474-26c0 8 0 16 0 26 32 0 63 0 97 0 0-8 0-16 0-26-32 0-64 0-97 0z m-192 28c6-30 5-31-20-31-20 0-41 0-60 1-6 1-13 7-15 12-2 11 2 18 15 18 26-1 53 0 80 0z m-102-204c-21-6-30-1-29 21 1 24 0 49 0 75 12 0 19 0 29 0 0-32 0-63 0-96z m-108-154c3-28 3-28-23-28-17 0-33 1-49 0-22-3-29 6-23 28 31 0 62 0 95 0z m115 187c0 10 0 16 0 26 33 0 64 0 98 0 0-9 0-17 0-26-33 0-64 0-98 0z m209 463c-11 0-19 0-30 0 0 29 0 58 1 87 0 4 9 11 14 10 5-1 14-7 14-12 2-28 1-55 1-85z m-600-47c9 1 17 1 27 2 0-32 0-63 0-96-8 0-17 0-27 0 0 31 0 62 0 94z m384-490c0-38 0-69 0-101-8 0-16 0-28 0 0 29-1 57 1 86 0 5 15 9 27 15z m329 491c9 0 18 0 28 0 0-32 0-63 0-95-9 0-18 0-28 0 0 31 0 63 0 95z m-686 47c-9 0-17 0-28 0 0 29-1 58 1 87 1 5 15 9 27 15 0-38 0-70 0-102z m534 61c0-11 0-19 0-27-32 0-62 0-93 0-8 24-7 26 19 27 24 1 48 0 74 0z m-318-456c0-36 2-63-1-91 0-6-14-11-22-17-2 2-4 4-6 5 0 29-2 58 1 87 0 5 15 9 28 16z m318-114c0-8 0-16 0-25-31 0-62 0-95 0 0 8 0 16 0 25 32 0 63 0 95 0z m152 605c10-1 18-1 27-1 0-32 0-63 0-95-8 0-17 0-27 0 0 31 0 62 0 96z m-80-107c0-10 0-17 0-26-33 0-64 0-97 0 0 9 0 17 0 26 32 0 64 0 97 0z m-107-536c0-30 0-60 0-92-8 0-16 0-27 0 0 28-1 57 1 85 0 5 13 9 20 14 2-2 4-4 6-7z m105 394c0-10 0-18 0-27-32 0-62 0-95 0 0 9 0 17 0 27 31 0 62 0 95 0z m-355 70c6-20 0-28-21-27-25 1-49 0-75 0 0 10 0 18 0 27 32 0 64 0 96 0z m116-98c0 10 0 18 0 28 32 0 63 0 96 0 0-9 0-18 0-28-32 0-62 0-96 0z m74-497c0 10 0 18 0 28 32 0 63 0 95 0 0-10 0-18 0-28-32 0-62 0-95 0z m-252 605c0 33 0 64 0 96 10 0 18 0 28 0 0-30 0-61 0-94-9 0-18-1-28-2z m108 107c0 9 0 17 0 26 32 0 63 0 96 0 0-9 0-17 0-26-31 0-63 0-96 0z m178-435c10 0 17 0 25 0 0-32 0-64 0-97-7 0-15 0-25 0 0 32 0 63 0 97z m-105 362c0 12 0 19 0 28 31 0 62 0 92 0 8-25 6-28-19-28-24 0-48 0-73 0z m284 28c32 0 63 0 96 0 0-9 0-17 0-26-32 0-63 0-96 0 0 9 0 17 0 26z m-396-239c-39 0-70 0-103 0 0 9 0 17 0 27 30 0 59 1 88-1 5 0 9-14 15-26z m315 107c-9 0-18 0-27 0 0 32 0 62 0 94 8 1 17 2 27 3 0-33 0-64 0-97z m-560 35c0 8 0 16 0 25 32 0 63 0 95 0 0-8 0-16 0-25-31 0-62 0-95 0z m284 0c0 9 0 16 0 26 32 0 64 0 97 0 0-9 1-16 1-26-33 0-64 0-98 0z m239 28c0-11 0-19 0-28-31 0-62 0-93 0-8 24-6 28 18 28 25 0 49 0 75 0z m-310-101c0 10 0 18 0 28 32 0 62 0 94 0 0-9 0-17 0-28-30 0-61 0-94 0z m95-114c0-10 0-18 0-27-31 0-62 0-94 0 0 8 0 17 0 27 31 0 61 0 94 0z m-102-57c-28-7-30-6-31 20 0 24 0 47 0 70 28 7 30 6 31-20 0-23 0-47 0-70z m175-157c0-9 0-17 0-26-33 0-65 0-97 0 0 9 0 17 0 26 32 0 63 0 97 0z m-35 437c-9 0-16 0-26 0 0 31 0 62 0 94 8 0 16 0 26 0 0-30 0-60 0-94z m-108 132c0-10 0-17 0-26-32 0-63 0-96 0 0 8 0 15 0 26 32 0 63 0 96 0z m285-282c0-11 0-19 0-28-32 0-63 0-94 0-5 26-4 27 19 28 24 0 48 0 75 0z m74-101c-37 0-67 0-99 0 0 10 0 18 0 29 30 0 60 1 89-1 4 0 6-16 10-28z m-597 357c0 8 0 16 0 26 32 0 63 0 95 0 0-9 0-17 0-26-31 0-62 0-95 0z m309-471c0-11 0-18 0-28-30 0-59 0-88 1-3 0-10 8-9 12 0 6 6 15 10 15 28 1 57 0 87 0z m-94 426c30 0 61 0 93 0 0-9 0-17 0-28-29 0-57 0-85 1-12 0-13 6-8 27z m273-60c-9 0-17 0-26 0 0 31 0 62 0 93 8 0 16 0 26 0 0-30 0-61 0-93z m-312-567c0 30 0 60 0 92 9 0 18 0 29 0 0-28 2-56-1-83 0-6-14-11-22-16-2 2-4 4-6 7z m560 200c4-27 4-27-22-27-24 0-48 0-74 0 0 9 0 17 0 27 33 0 64 0 96 0z m-570 427c0-10 0-17 0-27-28 0-56-1-84 1-5 0-10 14-18 26 39 0 70 0 102 0z m0-454c-26 0-51 0-76 0-22 0-22 0-20 27 31 0 62 0 96 0 0-8 0-16 0-27z m499 382c0-9 0-16 0-25-32 0-63 0-94 0-5 25-4 27 19 27 22 0 44 0 67 0 2 0 4-1 8-2z m-604-319c0-33 0-64 0-96-9 0-17 0-26 0 0 32 0 63 0 96 8 0 16 0 26 0z m330 497c8 0 16 1 26 1 0-32 0-63 0-96-9 0-16 0-26 0 0 31 0 62 0 95z m210-559c-39 0-71 0-103 0 0 9 0 16 0 27 30 0 59 1 87-1 5 0 9-14 16-26z m-68 132c10 0 18 0 29 0 0-29 1-58-2-87 0-4-16-7-27-11 0 36 0 67 0 98z m139-346c-40 0-70 0-102 0 0 9 0 18 0 29 28 0 57 1 85-1 5-1 9-15 17-28z m2 345c11 0 19 0 29 0 0-31 0-61 0-91-29-5-29-5-29 22 0 22 0 45 0 69z m-470 122c-10 0-18 0-27 0 0 30 0 60 0 92 9 0 17 0 27 0 0-31 0-60 0-92z m214 68c-10 0-18 0-27 0 0 32 0 63 0 93 25 6 27 5 27-18 0-24 0-48 0-75z m-429-141c-8 0-17 0-27 0 0 31 0 61 0 93 9 1 17 1 27 2 0-32 0-63 0-95z m402 93c28 3 28 3 28-23 0-22 0-45 0-69-10 0-18 0-28 0 0 30 0 60 0 92z m170-94c-10 0-18 0-28 0 0 31 0 61 0 94 9 0 17 0 28 0 0-31 0-61 0-94z m114 94c10 0 18 0 27 0 0-31 0-61 0-93-9 0-17 0-27 0 0 31 0 61 0 93z m-685-234c-22-6-31 0-29 22 1 23 0 46 0 70 10 0 19 0 29 0 0-31 0-61 0-92z m712-143c-9 0-17 0-27 0 0 32 0 62 0 94 9 0 18 0 27 0 0-31 0-61 0-94z m-383 309c10 0 18 0 27 0 0-32 0-62 0-94-9 0-18 0-27 0 0 31 0 61 0 94z m143 0c9 0 17 0 26 0 0-31 0-62 0-94-9 0-16 0-26 0 0 31 0 62 0 94z m-473-308c-9 0-16 0-25 0 0 30 0 60 0 93 7 0 15 1 25 1 0-31 0-61 0-94z m759 590c8 0 16 0 25 0 0-31 0-62 0-95-8 0-16 0-25 0 0 31 0 63 0 95z m-215-589c0 30 0 60 0 92 9 0 18 0 28 0 0-27 1-54 0-81-1-14-4-15-28-11z m-294 57c0-9 0-17 0-26-32 0-64 0-97 0 0 9 0 17 0 26 32 0 63 0 97 0z m-239-168c-1 9-1 17-1 26 31 0 62 0 93 0 6-27 4-29-21-28-12 1-24 0-37 0-11 0-22 1-34 2z m346 466c-9 0-17 0-27 0 0 31 0 61 0 92 9 0 17 0 27 0 0-30 0-60 0-92z m142 0c-9 0-17 0-26 0 0 31 0 61 0 92 9 0 16 0 26 0 0-30 0-60 0-92z m-97-263c9 0 16 0 25 0 0-31 0-62 0-93-8 0-15 0-25 0 0 30 0 61 0 93z m357-72c27 3 27 2 27-23 0-23 0-46 0-71-10 0-18 0-27 0 0 32 0 63 0 94z m0 145c8 0 16 0 25 0 0-33 0-64 0-97-9 0-16 0-25 0 0 32 0 64 0 97z m-713 141c9 0 16 0 26 0 0-30 0-60 0-93-8-1-16-1-26-2 0 33 0 63 0 95z m97-307c-9 0-17 0-26 0 0 31 0 60 0 93 8 0 16 1 26 1 0-31 0-62 0-94z m0 141c-10 0-17 0-26 0 0 31 0 61 0 93 8 0 16 0 26 0 0-30 0-61 0-93z m-97 449c9 0 16 0 26 0 0-31 0-62 0-94-9 0-17 0-26 0 0 32 0 63 0 94z m71 72c9 0 16 0 26 0 0-32 0-64 0-96-9 0-17 0-26 0 0 32 0 63 0 96z m133-462c0-10 0-17 0-26-33 0-65 0-97 0 0 9 0 17 0 26 32 0 63 0 97 0z m-144 117c-33 0-64 0-95 0 0 9 0 17 0 26 31 0 62 0 95 0 0-8 0-16 0-26z m189 1c0 9 0 15 0 25 32 0 64 0 97 0 0-9 0-17 0-25-33 0-65 0-97 0z m287 283c-7 21 1 28 21 27 23-1 47 0 72 0 0-10 0-18 0-27-31 0-61 0-93 0z m-155-460c-9 0-16 0-25 0 0 31 0 61 0 93 8 1 15 1 25 1 0-31 0-62 0-94z m-416-109c0 9 0 17 0 26 31 0 62 0 95 0 0-8 0-16 0-26-32 0-63 0-95 0z m570 285c0 9 0 17 0 26 32 0 62 0 94 0 0-8 0-16 0-26-30 0-61 0-94 0z m204-9c0-32 0-63 0-94-9 0-17 0-27 0 0 31 0 62 0 94 9 0 17 0 27 0z m-642 117c-9 0-17 0-28 0 0 28-1 56 1 83 1 6 14 11 21 17 2-2 4-4 6-6 0-31 0-62 0-94z m641-69c-10 0-17 0-26 0 0 31 0 61 0 93 9 0 17 0 26 0 0-31 0-61 0-93z m-489-182c0 9 0 17 0 26 32 0 64 0 97 0 0-9 0-16 0-26-32 0-64 0-97 0z m286-142c0 10 0 18 0 26 32 0 62 0 94 0 0-8 0-16 0-26-31 0-62 0-94 0z m-509 324c-9 0-17 0-26 0 0 30 0 61 0 92 8 0 17 0 26 0 0-31 0-61 0-92z m509-182c0 9 0 17 0 26 32 0 63 0 95 0 0-9 0-16 0-26-32 0-62 0-95 0z m-570 26c31 0 61 0 92 0 8-23 6-27-16-27-25 0-50 0-76 0 0 10 0 18 0 27z m60-273c-9 0-17 0-25 0 0 32 0 62 0 94 8 0 16 0 25 0 0-31 0-61 0-94z m463 272c0-8 0-15 0-24-31 0-62 0-95 0-1 8-1 15-2 24 33 0 64 0 97 0z m-417 178c10 0 17 0 25 0 0-32 0-62 0-94-8 0-16 0-25 0 0 32 0 62 0 94z m631 320c0-9 0-16 0-25-32 0-63 0-97 0 0 8 0 16-1 25 33 0 64 0 98 0z m-381-26c0 11 0 18 0 26 32 0 63 0 95 0 5-17 4-27-18-26-25 1-50 0-77 0z m274-602c-8 0-15-1-24-1 0 32 0 64 0 97 7 0 15 0 24 0 0-31 0-62 0-96z m-35 628c5-19 0-27-20-26-25 2-50 0-76 0-1 10-1 17-2 26 33 0 65 0 98 0z m-346-272c0 32 0 63 0 94 8 0 16 0 25 0 0-31 0-62 0-94-8 0-16 0-25 0z m488-439c0-9 0-16 0-25-33 0-64 0-97 0 0 9 0 16 0 25 33 0 64 0 97 0z m-488 677c9 0 16 0 24 0 0-32 0-64 0-96-8 0-15 0-24 0 0 31 0 62 0 96z m-82 35c0-10 0-17 0-25-32 0-63 0-95 0 0 8 0 16 0 25 31 0 62 0 95 0z m285-713c-1-8-1-15-1-24-32 0-63 0-95 0-2 8-3 15-4 24 33 0 65 0 100 0z m-144 2c0-9 0-16 0-27-29 0-58 0-86 1-4 0-11 10-10 14 0 5 8 12 13 12 27 1 54 0 83 0z m296 509c0 32 0 62 0 93 9 0 17 0 26 0 0-30 0-60 0-93-8 0-16 0-26 0z m-293 176c-34 0-65 0-97 0 0 9 0 17 0 26 31 0 61 0 94 0 1-8 2-15 3-26z m281-686c2-8 3-15 5-25-34 0-66 0-99 0 0 9 0 16 0 25 32 0 62 0 94 0z m-426 1c0-10 0-17 0-26-29 0-57-1-85 0-4 0-11 8-10 11 0 5 6 14 9 14 28 2 56 1 86 1z m464-60c-8 0-16 0-25 0 0 32 0 62 0 94 8 0 15 0 25 0 0-31 0-61 0-94z m-24 521c19 6 27 0 26-20-2-23-1-47-1-72-8 0-16-1-25-1 0 31 0 61 0 93z m-357-167c0 34 0 64 0 95 8 0 16 0 25 0 0-31 0-61 0-93-8 0-15-1-25-2z m1-188c8 0 16 0 24 0 0-31 0-61 0-93-8-1-15-1-24-2 0 32 0 63 0 95z m355 214c9 0 17 0 25 0 0-31 0-61 0-93-8 0-16 0-25 0 0 31 0 61 0 93z m-355-73c8 0 15 0 24 0 0-31 0-60 0-93-7 0-15 0-24-1 0 32 0 63 0 94z m595 179c0-9 0-17 0-26-21 0-41 0-63 0 0 8 0 16 0 26 20 0 40 0 63 0z m0-141c0-10 0-17 0-27-20 0-41 0-62 0 0 9 0 17 0 27 19 0 39 0 62 0z m0-144c0-9 0-16 0-25-21 0-41 0-63 0 0 8-1 16-1 25 21 0 41 0 64 0z m-70 428c28 0 49 0 70 0 0-9 0-17 0-27-18 0-35-2-52 1-6 1-10 14-18 26z m69 141c0-8 0-15 0-24-20 0-40 0-62 0 0 9 0 16 0 24 21 0 41 0 62 0z m-63-735c0 9 1 16 1 24 21 0 41 0 62 0 1-8 1-15 2-24-22 0-43 0-65 0z m-222 799c8-48 5-55-26-49 0 15 0 31 0 49 9 0 17 0 26 0z m188-933c0 17 0 34 0 51 9 0 17 0 24 0 12-43 6-57-24-51z m-356 882c0 17 0 33 0 51 8 1 15 1 25 2 0-18 0-35 0-53-8 0-16 0-25 0z m284-1c0 19 0 35 0 52 9 0 17 0 27 0 0-16 0-32 0-51-8 0-16-1-27-1z m-470-830c0-15 0-27 1-39 0-13-8-17-18-14-5 1-11 9-12 14-2 12 0 25 0 39 10 0 18 0 29 0z m141-53c-8 0-16 0-27 0 0 17-1 33 2 50 0 2 15 3 25 5 0-20 0-36 0-55z m-356 884c-10 0-18 0-28 0 0 18 0 34 0 51 10 0 18 0 28 0 0-16 0-32 0-51z m498-881c-26-6-27-5-27 18 0 10 0 21 1 32 10 0 17 0 26 0 0-17 0-33 0-50z m-214 932c0-17 0-33 0-51-8 0-15 0-24 0 0 17 0 33 0 51 7 0 14 0 24 0z m-239-883c8 0 16 0 25 0 0-17 0-33 0-51-8 0-16 0-25 0 0 17 0 34 0 51z m97 883c0-17 0-33 0-50-9 0-17 0-26 0 0 17 0 33 0 50 9 0 17 0 26 0z m473-933c0 17 0 33 0 50 8 0 16 0 27 0 0-11-1-22 0-32 1-22-9-24-27-18z m-695 206c0 8 0 16 0 24 14 0 27 0 40 0 10-28 4-31-40-24z m43 424c-15 0-28 0-43 0-1 8-1 16-2 23 36 14 49 8 45-23z m-43 169c15 0 29 0 44 0 0-10-1-18-1-27-15 0-28 0-43 0 0 9 0 17 0 27z m42-310c-14 0-27 0-42 0-1 8-1 16-1 23 36 12 47 7 43-23z m0-143c-14 0-27 0-42 0 0 8 0 17 0 26 13 0 27 0 42 0 0-7 0-15 0-26z m0-282c-37-9-44-5-42 23 37 8 44 4 42-23z" horiz-adv-x="938" />

<glyph glyph-name="sustainability" unicode="&#xe814;" d="M370 841c-8 0-14-7-19-12-26-33-52-66-78-98-64-81-130-165-195-248-63-80-88-173-74-275 12-87 55-166 123-224 66-58 152-90 241-90 6 0 13 1 19 1 13 1 27 2 40 4 129 21 235 105 283 226 49 121 30 254-49 356-64 83-130 167-194 248-26 33-52 66-79 99-4 6-11 13-18 13z m-21-874c0-7 0-15 0-23v-9l-9 0c0 0-1 0-1 0-25 0-49 5-77 15-128 47-202 138-221 270-12 85 10 165 62 233 52 67 105 134 157 199 21 28 43 55 65 83 1 1 3 3 5 5 0 1 1 2 2 3l16 18v-378l-15 15c-3 2-5 5-8 7-5 5-9 9-13 13-5 5-10 10-15 15-7 7-15 14-22 21-9 9-21 10-29 2-4-4-6-8-6-13 0-6 3-11 8-16 13-13 26-26 39-39 17-17 35-35 52-52 3-3 9-10 10-19 0-53 0-104 0-159v-58l-15 13c-2 1-3 2-4 3-2 2-4 3-6 5-16 16-31 31-47 47-27 26-53 53-80 79-8 8-15 9-24 5-8-4-12-12-10-20 1-4 4-10 9-14 55-55 110-110 165-164 9-8 12-17 12-29 0-19 0-38 0-58z m40 602v158c0 2 0 4 1 6 0 1 0 3 0 4l1 24 41-52c20-25 40-50 59-75 14-18 28-35 42-53 32-40 65-82 97-124 52-69 74-148 65-236-16-144-131-262-281-285-2 0-4 0-6 0-4 0-9 0-13 4-5 4-6 12-6 17 0 205 0 412 0 612z m87-544c3 1 6 3 10 4 41 20 75 48 101 83 25 34 40 72 46 112 1 16-6 25-19 27-1 0-2 0-3 0-10 0-19-8-21-19-14-78-58-134-131-166-12-6-17-18-13-30 5-10 17-15 30-11z m116 293c0-12 10-22 22-22 6 0 11 2 15 6 5 4 7 10 7 16 0 6-2 12-7 16-4 4-9 6-14 6-1 0-1 0-1 0-12 0-21-10-22-22z" horiz-adv-x="737" />

<glyph glyph-name="up-arrow" unicode="&#xe815;" d="M2300-94l-1153 944-1147-942 67-55 1081 888 1084-891 68 56z" horiz-adv-x="2300" />

<glyph glyph-name="down-arrow" unicode="&#xe816;" d="M0 794l1153-944 1147 942-67 55-1081-888-1084 891-68-56z" horiz-adv-x="2300" />

<glyph glyph-name="right-arrow" unicode="&#xe817;" d="M24-150l411 501-410 499-24-29 386-470-387-472 24-29z" horiz-adv-x="435" />

<glyph glyph-name="left-arrow" unicode="&#xe818;" d="M411 850l-411-501 409-499 25 29-386 470 387 472-24 29z" horiz-adv-x="435" />

<glyph glyph-name="facebook" unicode="&#xe819;" d="M547 850c-276 0-500-224-500-500 0-249 183-456 422-494v350h-127v144h127v110c0 126 75 195 189 195 54 0 112-10 112-10v-123h-63c-62 0-82-39-82-78v-94h139l-22-144h-117v-350c239 38 422 245 422 494 0 276-224 500-500 500z" horiz-adv-x="1050" />

<glyph glyph-name="instagram" unicode="&#xe81a;" d="M523 620c-135 0-244-109-244-243 0-135 109-244 244-244 134 0 243 109 243 244 0 134-109 243-243 243z m0-401c-88 0-158 70-158 158 0 87 70 158 158 158 87 0 158-71 158-158 0-88-71-158-158-158z m253 353c31 0 56 26 56 57 0 31-25 57-56 57-32 0-57-26-57-57 0-31 25-57 57-57z m196 115c-25 63-75 114-139 138-37 14-75 21-115 22-50 2-67 3-195 3-129 0-145 0-195-3-40-1-78-8-115-22-64-24-114-75-139-138-14-37-21-76-22-115-2-51-3-67-3-196 0-128 0-145 3-195 1-39 8-78 22-115 25-64 75-114 139-139 36-14 75-22 115-23 50-3 67-3 195-3 129 0 145 0 195 3 40 0 79 8 115 22 64 24 114 75 139 138 14 37 21 76 22 115 2 51 3 67 3 196 0 128 0 145-3 195-1 40-8 79-22 117z m-64-502c-1-30-6-60-17-89-16-41-48-74-90-90-28-11-58-16-88-16-50-3-64-3-192-3-128 0-141 0-192 3-30 0-60 5-88 16-42 16-75 49-91 90-10 28-16 58-16 88-2 50-3 64-3 192 0 128 0 142 3 193 0 30 6 60 16 88 16 42 49 75 91 90 28 11 58 16 88 17 50 2 64 3 192 3 128 0 141 0 192-3 30-1 60-6 88-17 42-15 74-48 90-90 11-28 16-57 17-87 2-51 3-65 3-193 0-128 0-142-3-192h0v0z" horiz-adv-x="1000" />

<glyph glyph-name="twitter" unicode="&#xe81b;" d="M1231 732c-46-20-94-34-145-40 52 31 92 81 111 140-49-29-103-50-161-62-46 49-111 80-184 80-139 0-252-113-252-252 0-20 2-39 6-58-210 11-396 111-520 264-22-37-34-81-34-127 0-88 44-165 112-210-42 1-80 12-115 31 0-1 0-2 0-3 0-122 87-224 203-247-21-6-44-9-67-9-16 0-32 1-47 4 32-100 125-173 236-175-87-68-195-108-314-108-20 0-40 1-60 3 112-71 244-113 387-113 464 0 718 385 718 718 0 11 0 22 0 33 49 36 92 80 126 131z" horiz-adv-x="1235" />

<glyph glyph-name="youtube" unicode="&#xe81c;" d="M1368 703c-15 57-60 103-117 118-104 29-522 29-522 29 0 0-418 1-522-27-56-15-102-61-118-118-27-105-28-321-28-321 0 0 0-218 27-321 16-57 61-103 118-118 105-29 522-29 522-29 0 0 418-1 522 27 57 15 102 60 118 117 27 105 28 321 28 321 0 0 1 218-28 322z m-773-520l1 400 347-200-348-200z" horiz-adv-x="1400" />

<glyph glyph-name="pinterest" unicode="&#xe81d;" d="M378 847c-162-19-324-153-331-345-4-118 29-206 138-230 47 85-16 104-25 166-40 253 285 426 455 249 118-122 41-499-149-460-182 37 89 337-57 396-118 48-180-146-124-243-33-166-104-322-75-530 92 69 124 201 149 339 47-29 72-60 131-64 220-18 342 224 313 447-27 198-220 298-425 275z" horiz-adv-x="850" />

<glyph glyph-name="linkedin" unicode="&#xe81e;" d="M240 529h-201c-9 0-16-7-16-16v-647c0-9 7-16 16-16h201c9 0 16 7 16 16v647c0 9-7 16-16 16z m-100 321c-73 0-133-59-133-133 0-73 60-132 133-132 73 0 132 59 132 132 0 74-59 133-132 133z m612-305c-81 0-141-35-177-74v42c0 8-7 16-16 16h-193c-9 0-16-8-16-16v-647c0-9 7-16 16-16h201c9 0 16 7 16 16v320c0 108 30 150 105 150 82 0 88-68 88-156v-314c0-9 7-16 16-16h201c9 0 16 7 16 16v355c0 160-30 324-257 324z" horiz-adv-x="1050" />

<glyph glyph-name="print" unicode="&#xe81f;" d="M896 100h-125c-12 0-21 9-21 21 0 11 9 21 21 21h125c34 0 62 28 62 62v292c0 34-28 62-62 62h-792c-34 0-62-28-62-62v-292c0-34 28-62 62-62h125c12 0 21-10 21-21 0-12-9-21-21-21h-125c-57 0-104 47-104 104v292c0 57 47 104 104 104h792c57 0 104-47 104-104v-292c0-57-47-104-104-104z m-292-125h-250c-11 0-21 9-21 21 0 11 10 21 21 21h250c12 0 21-10 21-21 0-12-9-21-21-21z m0 83h-250c-11 0-21 10-21 21 0 12 10 21 21 21h250c12 0 21-9 21-21 0-11-9-21-21-21z m-166 84h-84c-11 0-21 9-21 20 0 12 10 21 21 21h84c11 0 20-9 20-21 0-11-9-20-20-20z m333 416c-12 0-21 10-21 21v167c0 34-28 62-62 62h-375c-35 0-63-28-63-62v-167c0-11-9-21-21-21-11 0-21 10-21 21v167c0 57 47 104 105 104h375c57 0 104-47 104-104v-167c0-11-10-21-21-21z m-83-708h-375c-58 0-105 47-105 104v333c0 12 10 21 21 21h542c11 0 21-9 21-21v-333c0-57-47-104-104-104z m-438 417v-313c0-34 28-62 63-62h375c34 0 62 28 62 62v313h-500z" horiz-adv-x="1000" />
</font>
</defs>
</svg>
